# This file uses centimeters as units for non-parametric coordinates.

mtllib L2_nav.mtl
g default
v -1.380000 -0.000000 2.500000
v -0.920000 -0.000000 2.500000
v -0.460000 -0.000000 2.500000
v 0.000000 -0.000000 2.500000
v 0.460000 -0.000000 2.500000
v 0.920000 -0.000000 2.500000
v 1.380000 -0.000000 2.500000
v 1.840000 -0.000000 2.500000
v 2.300000 -0.000000 2.500000
v -1.380000 -0.000000 2.000000
v -0.920000 -0.000000 2.000000
v -0.460000 -0.000000 2.000000
v 0.000000 -0.000000 2.000000
v 0.460000 -0.000000 2.000000
v 0.920000 -0.000000 2.000000
v 1.380000 -0.000000 2.000000
v 1.840000 -0.000000 2.000000
v 2.300000 -0.000000 2.000000
v -2.300000 -0.000000 1.500000
v -1.840000 -0.000000 1.500000
v -1.380000 -0.000000 1.500000
v -0.920000 -0.000000 1.500000
v -0.460000 -0.000000 1.500000
v 0.000000 -0.000000 1.500000
v 0.460000 -0.000000 1.500000
v 0.920000 -0.000000 1.500000
v 1.380000 -0.000000 1.500000
v 1.840000 -0.000000 1.500000
v 2.300000 -0.000000 1.500000
v -2.300000 -0.000000 1.000000
v -1.840000 -0.000000 1.000000
v -1.380000 -0.000000 1.000000
v -0.920000 -0.000000 1.000000
v -0.460000 -0.000000 1.000000
v 0.000000 -0.000000 1.000000
v 0.460000 -0.000000 1.000000
v 0.920000 -0.000000 1.000000
v 1.380000 -0.000000 1.000000
v 1.840000 -0.000000 1.000000
v 2.300000 -0.000000 1.000000
v -2.300000 -0.000000 0.500000
v -1.840000 -0.000000 0.500000
v -1.380000 -0.000000 0.500000
v -0.920000 -0.000000 0.500000
v -0.460000 -0.000000 0.500000
v 0.000000 -0.000000 0.500000
v 0.460000 -0.000000 0.500000
v 0.920000 -0.000000 0.500000
v 1.380000 -0.000000 0.500000
v 1.840000 -0.000000 0.500000
v 2.300000 -0.000000 0.500000
v -2.300000 0.000000 0.000000
v -1.840000 0.000000 0.000000
v -1.380000 0.000000 0.000000
v -0.920000 0.000000 0.000000
v -0.460000 0.000000 0.000000
v 0.000000 0.000000 0.000000
v 0.460000 0.000000 0.000000
v 0.920000 0.000000 0.000000
v 1.380000 0.000000 0.000000
v 1.840000 0.000000 0.000000
v 2.300000 0.000000 0.000000
v -2.300000 0.000000 -0.500000
v -1.840000 0.000000 -0.500000
v -1.380000 0.000000 -0.500000
v -0.920000 0.000000 -0.500000
v -0.460000 0.000000 -0.500000
v 0.000000 0.000000 -0.500000
v 0.460000 0.000000 -0.500000
v 0.920000 0.000000 -0.500000
v 1.380000 0.000000 -0.500000
v 1.840000 0.000000 -0.500000
v 2.300000 0.000000 -0.500000
v -2.300000 0.000000 -1.000000
v -1.840000 0.000000 -1.000000
v -1.380000 0.000000 -1.000000
v -0.920000 0.000000 -1.000000
v -0.460000 0.000000 -1.000000
v 0.000000 0.000000 -1.000000
v 0.460000 0.000000 -1.000000
v 0.920000 0.000000 -1.000000
v 1.380000 0.000000 -1.000000
v 1.840000 0.000000 -1.000000
v 2.300000 0.000000 -1.000000
v -2.300000 0.000000 -1.500000
v -1.840000 0.000000 -1.500000
v -1.380000 0.000000 -1.500000
v -0.920000 0.000000 -1.500000
v -0.460000 0.000000 -1.500000
v 0.000000 0.000000 -1.500000
v 0.460000 0.000000 -1.500000
v 0.920000 0.000000 -1.500000
v 1.380000 0.000000 -1.500000
v 1.840000 0.000000 -1.500000
v 2.300000 0.000000 -1.500000
v -2.300000 0.000000 -2.000000
v -1.840000 0.000000 -2.000000
v -1.380000 0.000000 -2.000000
v -0.920000 0.000000 -2.000000
v -0.460000 0.000000 -2.000000
v 0.000000 0.000000 -2.000000
v 0.460000 0.000000 -2.000000
v 0.920000 0.000000 -2.000000
v 1.380000 0.000000 -2.000000
v 1.840000 0.000000 -2.000000
v 2.300000 0.000000 -2.000000
v -2.300000 0.000000 -2.500000
v -1.840000 0.000000 -2.500000
v -1.380000 0.000000 -2.500000
v -0.920000 0.000000 -2.500000
v -0.460000 0.000000 -2.500000
v 0.000000 0.000000 -2.500000
v 0.460000 0.000000 -2.500000
v 0.920000 0.000000 -2.500000
v 1.380000 0.000000 -2.500000
v 1.840000 0.000000 -2.500000
v 2.300000 0.000000 -2.500000
vt 0.200000 0.000000
vt 0.300000 0.000000
vt 0.400000 0.000000
vt 0.500000 0.000000
vt 0.600000 0.000000
vt 0.700000 0.000000
vt 0.800000 0.000000
vt 0.900000 0.000000
vt 1.000000 0.000000
vt 0.200000 0.100000
vt 0.300000 0.100000
vt 0.400000 0.100000
vt 0.500000 0.100000
vt 0.600000 0.100000
vt 0.700000 0.100000
vt 0.800000 0.100000
vt 0.900000 0.100000
vt 1.000000 0.100000
vt 0.000000 0.200000
vt 0.100000 0.200000
vt 0.200000 0.200000
vt 0.300000 0.200000
vt 0.400000 0.200000
vt 0.500000 0.200000
vt 0.600000 0.200000
vt 0.700000 0.200000
vt 0.800000 0.200000
vt 0.900000 0.200000
vt 1.000000 0.200000
vt 0.000000 0.300000
vt 0.100000 0.300000
vt 0.200000 0.300000
vt 0.300000 0.300000
vt 0.400000 0.300000
vt 0.500000 0.300000
vt 0.600000 0.300000
vt 0.700000 0.300000
vt 0.800000 0.300000
vt 0.900000 0.300000
vt 1.000000 0.300000
vt 0.000000 0.400000
vt 0.100000 0.400000
vt 0.200000 0.400000
vt 0.300000 0.400000
vt 0.400000 0.400000
vt 0.500000 0.400000
vt 0.600000 0.400000
vt 0.700000 0.400000
vt 0.800000 0.400000
vt 0.900000 0.400000
vt 1.000000 0.400000
vt 0.000000 0.500000
vt 0.100000 0.500000
vt 0.200000 0.500000
vt 0.300000 0.500000
vt 0.400000 0.500000
vt 0.500000 0.500000
vt 0.600000 0.500000
vt 0.700000 0.500000
vt 0.800000 0.500000
vt 0.900000 0.500000
vt 1.000000 0.500000
vt 0.000000 0.600000
vt 0.100000 0.600000
vt 0.200000 0.600000
vt 0.300000 0.600000
vt 0.400000 0.600000
vt 0.500000 0.600000
vt 0.600000 0.600000
vt 0.700000 0.600000
vt 0.800000 0.600000
vt 0.900000 0.600000
vt 1.000000 0.600000
vt 0.000000 0.700000
vt 0.100000 0.700000
vt 0.200000 0.700000
vt 0.300000 0.700000
vt 0.400000 0.700000
vt 0.500000 0.700000
vt 0.600000 0.700000
vt 0.700000 0.700000
vt 0.800000 0.700000
vt 0.900000 0.700000
vt 1.000000 0.700000
vt 0.000000 0.800000
vt 0.100000 0.800000
vt 0.200000 0.800000
vt 0.300000 0.800000
vt 0.400000 0.800000
vt 0.500000 0.800000
vt 0.600000 0.800000
vt 0.700000 0.800000
vt 0.800000 0.800000
vt 0.900000 0.800000
vt 1.000000 0.800000
vt 0.000000 0.900000
vt 0.100000 0.900000
vt 0.200000 0.900000
vt 0.300000 0.900000
vt 0.400000 0.900000
vt 0.500000 0.900000
vt 0.600000 0.900000
vt 0.700000 0.900000
vt 0.800000 0.900000
vt 0.900000 0.900000
vt 1.000000 0.900000
vt 0.000000 1.000000
vt 0.100000 1.000000
vt 0.200000 1.000000
vt 0.300000 1.000000
vt 0.400000 1.000000
vt 0.500000 1.000000
vt 0.600000 1.000000
vt 0.700000 1.000000
vt 0.800000 1.000000
vt 0.900000 1.000000
vt 1.000000 1.000000
vn 0.000000 1.000000 0.000000
vn 0.000000 1.000000 0.000000
vn 0.000000 1.000000 0.000000
vn 0.000000 1.000000 0.000000
vn 0.000000 1.000000 0.000000
vn 0.000000 1.000000 0.000000
vn 0.000000 1.000000 0.000000
vn 0.000000 1.000000 0.000000
vn 0.000000 1.000000 0.000000
vn 0.000000 1.000000 0.000000
vn 0.000000 1.000000 0.000000
vn 0.000000 1.000000 0.000000
vn 0.000000 1.000000 0.000000
vn 0.000000 1.000000 0.000000
vn 0.000000 1.000000 0.000000
vn 0.000000 1.000000 0.000000
vn 0.000000 1.000000 0.000000
vn 0.000000 1.000000 0.000000
vn 0.000000 1.000000 0.000000
vn 0.000000 1.000000 0.000000
vn 0.000000 1.000000 0.000000
vn 0.000000 1.000000 0.000000
vn 0.000000 1.000000 0.000000
vn 0.000000 1.000000 0.000000
vn 0.000000 1.000000 0.000000
vn 0.000000 1.000000 0.000000
vn 0.000000 1.000000 0.000000
vn 0.000000 1.000000 0.000000
vn 0.000000 1.000000 0.000000
vn 0.000000 1.000000 0.000000
vn 0.000000 1.000000 0.000000
vn 0.000000 1.000000 0.000000
vn 0.000000 1.000000 0.000000
vn 0.000000 1.000000 0.000000
vn 0.000000 1.000000 0.000000
vn 0.000000 1.000000 0.000000
vn 0.000000 1.000000 0.000000
vn 0.000000 1.000000 0.000000
vn 0.000000 1.000000 0.000000
vn 0.000000 1.000000 0.000000
vn 0.000000 1.000000 0.000000
vn 0.000000 1.000000 0.000000
vn 0.000000 1.000000 0.000000
vn 0.000000 1.000000 0.000000
vn 0.000000 1.000000 0.000000
vn 0.000000 1.000000 0.000000
vn 0.000000 1.000000 0.000000
vn 0.000000 1.000000 0.000000
vn 0.000000 1.000000 0.000000
vn 0.000000 1.000000 0.000000
vn 0.000000 1.000000 0.000000
vn 0.000000 1.000000 0.000000
vn 0.000000 1.000000 0.000000
vn 0.000000 1.000000 0.000000
vn 0.000000 1.000000 0.000000
vn 0.000000 1.000000 0.000000
vn 0.000000 1.000000 0.000000
vn 0.000000 1.000000 0.000000
vn 0.000000 1.000000 0.000000
vn 0.000000 1.000000 0.000000
vn 0.000000 1.000000 0.000000
vn 0.000000 1.000000 0.000000
vn 0.000000 1.000000 0.000000
vn 0.000000 1.000000 0.000000
vn 0.000000 1.000000 0.000000
vn 0.000000 1.000000 0.000000
vn 0.000000 1.000000 0.000000
vn 0.000000 1.000000 0.000000
vn 0.000000 1.000000 0.000000
vn 0.000000 1.000000 0.000000
vn 0.000000 1.000000 0.000000
vn 0.000000 1.000000 0.000000
vn 0.000000 1.000000 0.000000
vn 0.000000 1.000000 0.000000
vn 0.000000 1.000000 0.000000
vn 0.000000 1.000000 0.000000
vn 0.000000 1.000000 0.000000
vn 0.000000 1.000000 0.000000
vn 0.000000 1.000000 0.000000
vn 0.000000 1.000000 0.000000
vn 0.000000 1.000000 0.000000
vn 0.000000 1.000000 0.000000
vn 0.000000 1.000000 0.000000
vn 0.000000 1.000000 0.000000
vn 0.000000 1.000000 0.000000
vn 0.000000 1.000000 0.000000
vn 0.000000 1.000000 0.000000
vn 0.000000 1.000000 0.000000
vn 0.000000 1.000000 0.000000
vn 0.000000 1.000000 0.000000
vn 0.000000 1.000000 0.000000
vn 0.000000 1.000000 0.000000
vn 0.000000 1.000000 0.000000
vn 0.000000 1.000000 0.000000
vn 0.000000 1.000000 0.000000
vn 0.000000 1.000000 0.000000
vn 0.000000 1.000000 0.000000
vn 0.000000 1.000000 0.000000
vn 0.000000 1.000000 0.000000
vn 0.000000 1.000000 0.000000
vn 0.000000 1.000000 0.000000
vn 0.000000 1.000000 0.000000
vn 0.000000 1.000000 0.000000
vn 0.000000 1.000000 0.000000
vn 0.000000 1.000000 0.000000
vn 0.000000 1.000000 0.000000
vn 0.000000 1.000000 0.000000
vn 0.000000 1.000000 0.000000
vn 0.000000 1.000000 0.000000
vn 0.000000 1.000000 0.000000
vn 0.000000 1.000000 0.000000
vn 0.000000 1.000000 0.000000
vn 0.000000 1.000000 0.000000
vn 0.000000 1.000000 0.000000
vn 0.000000 1.000000 0.000000
vn 0.000000 1.000000 0.000000
vn 0.000000 1.000000 0.000000
s 1
g Gerade_Holz_Licht_nav
usemtl initialShadingGroup
f 1/1/1 2/2/2 11/11/3 10/10/4
f 2/2/2 3/3/5 12/12/6 11/11/3
f 3/3/5 4/4/7 13/13/8 12/12/6
f 4/4/7 5/5/9 14/14/10 13/13/8
f 5/5/9 6/6/11 15/15/12 14/14/10
f 6/6/11 7/7/13 16/16/14 15/15/12
f 7/7/13 8/8/15 17/17/16 16/16/14
f 8/8/15 9/9/17 18/18/18 17/17/16
f 10/10/4 11/11/3 22/22/19 21/21/20
f 11/11/3 12/12/6 23/23/21 22/22/19
f 12/12/6 13/13/8 24/24/22 23/23/21
f 13/13/8 14/14/10 25/25/23 24/24/22
f 14/14/10 15/15/12 26/26/24 25/25/23
f 15/15/12 16/16/14 27/27/25 26/26/24
f 16/16/14 17/17/16 28/28/26 27/27/25
f 17/17/16 18/18/18 29/29/27 28/28/26
f 19/19/28 20/20/29 31/31/30 30/30/31
f 20/20/29 21/21/20 32/32/32 31/31/30
f 21/21/20 22/22/19 33/33/33 32/32/32
f 22/22/19 23/23/21 34/34/34 33/33/33
f 23/23/21 24/24/22 35/35/35 34/34/34
f 24/24/22 25/25/23 36/36/36 35/35/35
f 25/25/23 26/26/24 37/37/37 36/36/36
f 26/26/24 27/27/25 38/38/38 37/37/37
f 27/27/25 28/28/26 39/39/39 38/38/38
f 28/28/26 29/29/27 40/40/40 39/39/39
f 30/30/31 31/31/30 42/42/41 41/41/42
f 31/31/30 32/32/32 43/43/43 42/42/41
f 32/32/32 33/33/33 44/44/44 43/43/43
f 33/33/33 34/34/34 45/45/45 44/44/44
f 34/34/34 35/35/35 46/46/46 45/45/45
f 35/35/35 36/36/36 47/47/47 46/46/46
f 36/36/36 37/37/37 48/48/48 47/47/47
f 37/37/37 38/38/38 49/49/49 48/48/48
f 38/38/38 39/39/39 50/50/50 49/49/49
f 39/39/39 40/40/40 51/51/51 50/50/50
f 41/41/42 42/42/41 53/53/52 52/52/53
f 42/42/41 43/43/43 54/54/54 53/53/52
f 43/43/43 44/44/44 55/55/55 54/54/54
f 44/44/44 45/45/45 56/56/56 55/55/55
f 45/45/45 46/46/46 57/57/57 56/56/56
f 46/46/46 47/47/47 58/58/58 57/57/57
f 47/47/47 48/48/48 59/59/59 58/58/58
f 48/48/48 49/49/49 60/60/60 59/59/59
f 49/49/49 50/50/50 61/61/61 60/60/60
f 50/50/50 51/51/51 62/62/62 61/61/61
f 52/52/53 53/53/52 64/64/63 63/63/64
f 53/53/52 54/54/54 65/65/65 64/64/63
f 54/54/54 55/55/55 66/66/66 65/65/65
f 55/55/55 56/56/56 67/67/67 66/66/66
f 56/56/56 57/57/57 68/68/68 67/67/67
f 57/57/57 58/58/58 69/69/69 68/68/68
f 58/58/58 59/59/59 70/70/70 69/69/69
f 59/59/59 60/60/60 71/71/71 70/70/70
f 60/60/60 61/61/61 72/72/72 71/71/71
f 61/61/61 62/62/62 73/73/73 72/72/72
f 63/63/64 64/64/63 75/75/74 74/74/75
f 64/64/63 65/65/65 76/76/76 75/75/74
f 65/65/65 66/66/66 77/77/77 76/76/76
f 66/66/66 67/67/67 78/78/78 77/77/77
f 67/67/67 68/68/68 79/79/79 78/78/78
f 68/68/68 69/69/69 80/80/80 79/79/79
f 69/69/69 70/70/70 81/81/81 80/80/80
f 70/70/70 71/71/71 82/82/82 81/81/81
f 71/71/71 72/72/72 83/83/83 82/82/82
f 72/72/72 73/73/73 84/84/84 83/83/83
f 74/74/75 75/75/74 86/86/85 85/85/86
f 75/75/74 76/76/76 87/87/87 86/86/85
f 76/76/76 77/77/77 88/88/88 87/87/87
f 77/77/77 78/78/78 89/89/89 88/88/88
f 78/78/78 79/79/79 90/90/90 89/89/89
f 79/79/79 80/80/80 91/91/91 90/90/90
f 80/80/80 81/81/81 92/92/92 91/91/91
f 81/81/81 82/82/82 93/93/93 92/92/92
f 82/82/82 83/83/83 94/94/94 93/93/93
f 83/83/83 84/84/84 95/95/95 94/94/94
f 85/85/86 86/86/85 97/97/96 96/96/97
f 86/86/85 87/87/87 98/98/98 97/97/96
f 87/87/87 88/88/88 99/99/99 98/98/98
f 88/88/88 89/89/89 100/100/100 99/99/99
f 89/89/89 90/90/90 101/101/101 100/100/100
f 90/90/90 91/91/91 102/102/102 101/101/101
f 91/91/91 92/92/92 103/103/103 102/102/102
f 92/92/92 93/93/93 104/104/104 103/103/103
f 93/93/93 94/94/94 105/105/105 104/104/104
f 94/94/94 95/95/95 106/106/106 105/105/105
f 96/96/97 97/97/96 108/108/107 107/107/108
f 97/97/96 98/98/98 109/109/109 108/108/107
f 98/98/98 99/99/99 110/110/110 109/109/109
f 99/99/99 100/100/100 111/111/111 110/110/110
f 100/100/100 101/101/101 112/112/112 111/111/111
f 101/101/101 102/102/102 113/113/113 112/112/112
f 102/102/102 103/103/103 114/114/114 113/113/113
f 103/103/103 104/104/104 115/115/115 114/114/114
f 104/104/104 105/105/105 116/116/116 115/115/115
f 105/105/105 106/106/106 117/117/117 116/116/116
