# This file uses centimeters as units for non-parametric coordinates.

mtllib E2.mtl
g default
v 1.500000 0.000000 -0.500000
v 1.500000 0.000000 -1.500000
v 1.500000 0.100000 -0.500000
v 1.500000 0.100000 -1.500000
v 0.500000 0.100000 -0.500000
v 0.500000 0.100000 -1.500000
v 0.500000 0.000000 -0.500000
v 0.500000 0.000000 -1.500000
v 1.500000 0.000000 1.500000
v 1.500000 0.000000 0.500000
v 1.500000 0.100000 1.500000
v 1.500000 0.100000 0.500000
v 0.500000 0.100000 1.500000
v 0.500000 0.100000 0.500000
v 0.500000 0.000000 1.500000
v 0.500000 0.000000 0.500000
v -0.500000 0.000000 1.500000
v -0.500000 0.000000 0.500000
v -0.500000 0.100000 1.500000
v -0.500000 0.100000 0.500000
v -1.500000 0.100000 1.500000
v -1.500000 0.100000 0.500000
v -1.500000 0.000000 1.500000
v -1.500000 0.000000 0.500000
v -0.500000 0.000000 -0.500000
v -0.500000 0.000000 -1.500000
v -0.500000 0.100000 -0.500000
v -0.500000 0.100000 -1.500000
v -1.500000 0.100000 -0.500000
v -1.500000 0.100000 -1.500000
v -1.500000 0.000000 -0.500000
v -1.500000 0.000000 -1.500000
v -2.500000 -0.050000 2.500000
v 2.500000 -0.050000 2.500000
v -2.500000 0.050000 2.500000
v 2.500000 0.050000 2.500000
v -2.500000 0.050000 -2.500000
v 2.500000 0.050000 -2.500000
v -2.500000 -0.050000 -2.500000
v 2.500000 -0.050000 -2.500000
v -2.300000 0.000000 -2.500001
v -2.500000 0.000000 -2.500001
v -2.300000 2.000000 -2.500001
v -2.500000 2.000000 -2.500001
v -2.300000 2.000000 2.499999
v -2.500000 2.000000 2.499999
v -2.300000 0.000000 2.499999
v -2.500000 0.000000 2.499999
v -2.500000 0.000000 -2.500001
v -2.500000 0.000000 -2.300001
v -2.500000 2.000000 -2.500001
v -2.500000 2.000000 -2.300001
v 2.500000 2.000000 -2.500001
v 2.500000 2.000000 -2.300001
v 2.500000 0.000000 -2.500001
v 2.500000 0.000000 -2.300001
v 2.308001 2.000000 2.500000
v 2.300001 2.000000 2.299999
v 2.300001 2.000000 2.500000
v 2.300001 2.000000 2.500000
v 2.500000 2.000000 2.299999
v 2.300001 0.000000 2.299999
v 2.300001 0.000000 2.299999
v 2.500000 0.000000 2.299999
v 2.500000 0.080000 2.299999
v 2.500000 0.000000 2.500000
v 2.500000 0.000000 2.308000
v 2.500000 0.080000 2.500000
v 2.492001 0.000000 2.500000
v 2.300001 1.920000 2.500000
v 2.300001 2.000000 2.500000
v 2.500000 2.000000 2.500000
v 2.500000 2.000000 2.492000
v 2.500000 1.920000 2.500000
v 2.300001 0.000000 2.500000
v 2.300001 0.000000 2.299999
vt 0.375000 0.000000
vt 0.625000 0.000000
vt 0.375000 0.250000
vt 0.625000 0.250000
vt 0.375000 0.500000
vt 0.625000 0.500000
vt 0.375000 0.750000
vt 0.625000 0.750000
vt 0.375000 1.000000
vt 0.625000 1.000000
vt 0.875000 0.000000
vt 0.875000 0.250000
vt 0.125000 0.000000
vt 0.125000 0.250000
vt 0.375000 0.000000
vt 0.625000 0.000000
vt 0.625000 0.250000
vt 0.375000 0.250000
vt 0.625000 0.500000
vt 0.375000 0.500000
vt 0.625000 0.750000
vt 0.375000 0.750000
vt 0.625000 1.000000
vt 0.375000 1.000000
vt 0.875000 0.000000
vt 0.875000 0.250000
vt 0.125000 0.000000
vt 0.125000 0.250000
vt 0.375000 0.000000
vt 0.625000 0.000000
vt 0.625000 0.250000
vt 0.375000 0.250000
vt 0.625000 0.500000
vt 0.375000 0.500000
vt 0.625000 0.750000
vt 0.375000 0.750000
vt 0.625000 1.000000
vt 0.375000 1.000000
vt 0.875000 0.000000
vt 0.875000 0.250000
vt 0.125000 0.000000
vt 0.125000 0.250000
vt 0.375000 0.000000
vt 0.625000 0.000000
vt 0.625000 0.250000
vt 0.375000 0.250000
vt 0.625000 0.500000
vt 0.375000 0.500000
vt 0.625000 0.750000
vt 0.375000 0.750000
vt 0.625000 1.000000
vt 0.375000 1.000000
vt 0.875000 0.000000
vt 0.875000 0.250000
vt 0.125000 0.000000
vt 0.125000 0.250000
vt 0.375000 0.000000
vt 0.625000 0.000000
vt 0.625000 0.250000
vt 0.375000 0.250000
vt 0.001992 0.001992
vt 0.998008 0.001992
vt 0.998008 0.998008
vt 0.001992 0.998008
vt 0.375000 0.500000
vt 0.625000 0.500000
vt 0.625000 0.750000
vt 0.375000 0.750000
vt 0.625000 1.000000
vt 0.375000 1.000000
vt 0.875000 0.000000
vt 0.875000 0.250000
vt 0.125000 0.000000
vt 0.125000 0.250000
vt 0.450000 0.000000
vt 0.550000 0.000000
vt 0.450000 1.000000
vt 0.550000 1.000000
vt -0.000000 0.375000
vt -0.000000 0.625000
vt 1.000000 0.375000
vt 1.000000 0.625000
vt 0.450000 1.000000
vt 0.550000 1.000000
vt 0.450000 0.000000
vt 0.550000 0.000000
vt 1.000000 0.375000
vt 1.000000 0.625000
vt -0.000000 0.375000
vt -0.000000 0.625000
vt -0.000000 0.000000
vt 1.000000 0.000000
vt -0.000000 1.000000
vt 1.000000 1.000000
vt 1.000000 0.000000
vt -0.000000 0.000000
vt 1.000000 1.000000
vt -0.000000 1.000000
vt 0.450000 0.000000
vt 0.550000 0.000000
vt 0.450000 1.000000
vt 0.550000 1.000000
vt -0.000000 0.375000
vt -0.000000 0.625000
vt 1.000000 0.375000
vt 1.000000 0.625000
vt 0.450000 1.000000
vt 0.550000 1.000000
vt 0.450000 0.000000
vt 0.550000 0.000000
vt 1.000000 0.375000
vt 1.000000 0.625000
vt -0.000000 0.375000
vt -0.000000 0.625000
vt -0.000000 0.000000
vt 1.000000 0.000000
vt -0.000000 1.000000
vt 1.000000 1.000000
vt 1.000000 0.000000
vt -0.000000 0.000000
vt 1.000000 1.000000
vt -0.000000 1.000000
vt 0.040000 0.615000
vt -0.000000 0.625000
vt 0.040000 0.625000
vt 0.040000 0.625000
vt 0.450000 1.000000
vt 0.550000 0.000000
vt 0.550000 0.000000
vt 0.550000 1.000000
vt 0.450000 0.000000
vt 0.450000 0.040000
vt 0.040000 0.000000
vt 0.001600 0.000000
vt -0.000000 0.000000
vt 0.040000 0.040000
vt 0.040000 0.385000
vt -0.000000 0.375000
vt 0.001600 0.375000
vt 0.040000 0.375000
vt -0.000000 1.000000
vt 0.040000 0.960000
vt 0.040000 1.000000
vt 0.040000 1.000000
vt 0.040000 1.000000
vt 0.040000 0.375000
vt 0.038400 0.375000
vt -0.000000 0.375000
vt 0.000000 1.000000
vt 0.040000 0.960000
vt 0.040000 1.000000
vt 0.001600 1.000000
vt 0.000000 1.000000
vt 0.040000 0.625000
vt -0.000000 0.625000
vt -0.000000 0.625000
vt -0.000000 0.000000
vt -0.000000 0.000000
vt -0.000000 0.000000
vt 0.040000 0.000000
vt -0.000000 0.040000
vt -0.000000 1.000000
vt 0.038400 1.000000
vt 0.000000 0.000000
vt 0.038400 0.000000
vt 0.000000 0.960000
vn 1.000000 0.000000 0.000000
vn 1.000000 -0.000009 0.000000
vn 1.000000 -0.000001 0.000000
vn 1.000000 -0.000010 0.000000
vn 0.000000 1.000000 0.000000
vn 0.000000 1.000000 0.000000
vn 0.000000 1.000000 0.000000
vn 0.000000 1.000000 0.000000
vn -1.000000 0.000000 0.000000
vn -1.000000 0.000000 0.000000
vn -1.000000 0.000000 0.000000
vn -1.000000 0.000000 0.000000
vn 0.000000 -1.000000 0.000000
vn 0.000000 -1.000000 0.000000
vn 0.000000 -1.000000 0.000000
vn 0.000000 -1.000000 0.000000
vn 0.000000 0.000000 -1.000000
vn 0.000000 0.000000 -1.000000
vn 0.000000 0.000000 -1.000000
vn 0.000000 0.000000 -1.000000
vn 0.000000 0.000000 1.000000
vn 0.000000 0.000000 1.000000
vn 0.000000 0.000000 1.000000
vn 0.000000 0.000000 1.000000
vn 1.000000 0.000000 0.000000
vn 1.000000 -0.000009 0.000000
vn 1.000000 -0.000001 0.000000
vn 1.000000 -0.000010 0.000000
vn 0.000000 1.000000 0.000000
vn 0.000000 1.000000 0.000000
vn 0.000000 1.000000 0.000000
vn 0.000000 1.000000 0.000000
vn -1.000000 0.000000 0.000000
vn -1.000000 0.000000 0.000000
vn -1.000000 0.000000 0.000000
vn -1.000000 0.000000 0.000000
vn 0.000000 -1.000000 0.000000
vn 0.000000 -1.000000 0.000000
vn 0.000000 -1.000000 0.000000
vn 0.000000 -1.000000 0.000000
vn 0.000000 0.000000 -1.000000
vn 0.000000 0.000000 -1.000000
vn 0.000000 0.000000 -1.000000
vn 0.000000 0.000000 -1.000000
vn 0.000000 0.000000 1.000000
vn 0.000000 0.000000 1.000000
vn 0.000000 0.000000 1.000000
vn 0.000000 0.000000 1.000000
vn 1.000000 0.000000 0.000000
vn 1.000000 -0.000009 0.000000
vn 1.000000 -0.000001 0.000000
vn 1.000000 -0.000010 0.000000
vn 0.000000 1.000000 0.000000
vn 0.000000 1.000000 0.000000
vn 0.000000 1.000000 0.000000
vn 0.000000 1.000000 0.000000
vn -1.000000 0.000000 0.000000
vn -1.000000 0.000000 0.000000
vn -1.000000 0.000000 0.000000
vn -1.000000 0.000000 0.000000
vn 0.000000 -1.000000 0.000000
vn 0.000000 -1.000000 0.000000
vn 0.000000 -1.000000 0.000000
vn 0.000000 -1.000000 0.000000
vn 0.000000 0.000000 -1.000000
vn 0.000000 0.000000 -1.000000
vn 0.000000 0.000000 -1.000000
vn 0.000000 0.000000 -1.000000
vn 0.000000 0.000000 1.000000
vn 0.000000 0.000000 1.000000
vn 0.000000 0.000000 1.000000
vn 0.000000 0.000000 1.000000
vn 1.000000 0.000000 0.000000
vn 1.000000 -0.000009 0.000000
vn 1.000000 -0.000001 0.000000
vn 1.000000 -0.000010 0.000000
vn 0.000000 1.000000 0.000000
vn 0.000000 1.000000 0.000000
vn 0.000000 1.000000 0.000000
vn 0.000000 1.000000 0.000000
vn -1.000000 0.000000 0.000000
vn -1.000000 0.000000 0.000000
vn -1.000000 0.000000 0.000000
vn -1.000000 0.000000 0.000000
vn 0.000000 -1.000000 0.000000
vn 0.000000 -1.000000 0.000000
vn 0.000000 -1.000000 0.000000
vn 0.000000 -1.000000 0.000000
vn 0.000000 0.000000 -1.000000
vn 0.000000 0.000000 -1.000000
vn 0.000000 0.000000 -1.000000
vn 0.000000 0.000000 -1.000000
vn 0.000000 0.000000 1.000000
vn 0.000000 0.000000 1.000000
vn 0.000000 0.000000 1.000000
vn 0.000000 0.000000 1.000000
vn 0.000000 0.000000 1.000000
vn 0.000000 0.000000 1.000000
vn 0.000000 0.000000 1.000000
vn 0.000000 0.000000 1.000000
vn 0.000000 1.000000 0.000000
vn 0.000000 1.000000 0.000000
vn 0.000000 1.000000 0.000000
vn 0.000000 1.000000 0.000000
vn 0.000000 0.000000 -1.000000
vn 0.000000 0.000000 -1.000000
vn 0.000000 0.000000 -1.000000
vn 0.000000 0.000000 -1.000000
vn 0.000000 -1.000000 0.000000
vn 0.000000 -1.000000 0.000000
vn 0.000000 -1.000000 0.000000
vn 0.000000 -1.000000 0.000000
vn 1.000000 0.000000 0.000000
vn 1.000000 0.000000 0.000000
vn 1.000000 0.000000 0.000000
vn 1.000000 0.000000 0.000000
vn -1.000000 0.000000 0.000000
vn -1.000000 0.000000 0.000000
vn -1.000000 0.000000 0.000000
vn -1.000000 0.000000 0.000000
vn 0.000000 0.000000 -1.000000
vn 0.000000 0.000000 -1.000000
vn 0.000000 0.000000 -1.000000
vn 0.000000 0.000000 -1.000000
vn 0.000000 1.000000 0.000000
vn 0.000000 1.000000 0.000000
vn 0.000000 1.000000 0.000000
vn 0.000000 1.000000 0.000000
vn 0.000000 0.000000 1.000000
vn 0.000000 0.000000 1.000000
vn 0.000000 0.000000 1.000000
vn 0.000000 0.000000 1.000000
vn 0.000000 -1.000000 0.000000
vn 0.000000 -1.000000 0.000000
vn 0.000000 -1.000000 0.000000
vn 0.000000 -1.000000 0.000000
vn -1.000000 0.000000 0.000000
vn -1.000000 0.000000 0.000000
vn -1.000000 0.000000 0.000000
vn -1.000000 0.000000 0.000000
vn 1.000000 0.000000 0.000000
vn 1.000000 0.000000 0.000000
vn 1.000000 0.000000 0.000000
vn 1.000000 0.000000 0.000000
vn -1.000000 0.000000 0.000000
vn -1.000000 0.000000 0.000000
vn -1.000000 0.000000 0.000000
vn -1.000000 0.000000 0.000000
vn 0.000000 1.000000 0.000000
vn 0.000000 1.000000 0.000000
vn 0.000000 1.000000 0.000000
vn 0.000000 1.000000 0.000000
vn 1.000000 0.000000 0.000000
vn 1.000000 0.000000 0.000000
vn 1.000000 0.000000 0.000000
vn 1.000000 0.000000 0.000000
vn 0.000000 -1.000000 0.000000
vn 0.000000 -1.000000 0.000000
vn 0.000000 -1.000000 0.000000
vn 0.000000 -1.000000 0.000000
vn 0.000000 0.000000 1.000000
vn 0.000000 0.000000 1.000000
vn 0.000000 0.000000 1.000000
vn 0.000000 0.000000 1.000000
vn 0.000000 0.000000 -1.000000
vn 0.000000 0.000000 -1.000000
vn 0.000000 0.000000 -1.000000
vn 0.000000 0.000000 -1.000000
vn 0.000000 1.000000 0.000000
vn 0.000000 1.000000 0.000000
vn 0.000000 0.000000 0.000000
vn 0.000000 0.000000 0.000000
vn -0.000000 0.000000 -1.000000
vn -0.000001 0.000000 -1.000000
vn 0.000000 0.000000 -1.000000
vn 0.000000 0.000000 -1.000000
vn -0.000001 0.000000 -1.000000
vn -0.000001 0.000000 -1.000000
vn 1.000000 0.000000 0.000000
vn 1.000000 0.000000 0.000000
vn 1.000000 0.000000 0.000000
vn 1.000000 0.000000 0.000000
vn 0.000000 -1.000000 0.000000
vn 0.000000 -1.000000 0.000000
vn 0.000000 -1.000000 0.000000
vn 0.000000 -1.000000 0.000000
vn -1.000000 0.000000 0.000000
vn -1.000000 0.000000 0.000000
vn -1.000000 0.000000 0.000000
vn -0.000000 0.000000 0.000000
vn -0.000000 0.000000 0.000000
vn 0.000000 1.000000 0.000000
vn 0.000000 1.000000 0.000000
vn 0.000000 1.000000 0.000000
vn 0.000000 0.000000 1.000000
vn 0.000000 0.000000 1.000000
vn 0.000000 0.000000 1.000000
vn 0.000000 0.000000 1.000000
vn 0.000000 0.000000 1.000000
vn 0.000000 -1.000000 0.000000
vn 0.000000 -0.000000 0.000000
vn 0.000000 -0.000000 0.000000
vn -1.000000 0.000000 0.000000
vn -0.000000 0.000000 0.000000
vn -0.000000 0.000000 0.000000
vn -1.000000 0.000000 0.000000
vn 1.000000 0.000000 0.000000
vn 1.000000 0.000000 0.000000
vn 1.000000 0.000000 0.000000
vn 1.000000 0.000000 0.000000
vn 1.000000 0.000000 0.000000
vn 0.000000 0.000000 1.000000
vn 0.000000 0.000000 1.000000
vn 0.000000 0.000000 1.000000
vn 0.000000 0.000000 1.000000
vn 0.000000 0.000000 1.000000
s 1
g Hock_Ecke
usemtl Boden:pasted__pasted__pasted__pasted__pasted__pasted__lambert8SG3
f 1/1/1 2/2/2 3/3/3
f 3/3/3 2/2/2 4/4/4
s 2
f 3/3/5 4/4/6 5/5/7
f 5/5/7 4/4/6 6/6/8
s 3
f 5/5/9 6/6/10 7/7/11
f 7/7/11 6/6/10 8/8/12
s 4
f 7/7/13 8/8/14 1/9/15
f 1/9/15 8/8/14 2/10/16
s 5
f 2/2/17 8/11/18 4/4/19
f 4/4/19 8/11/18 6/12/20
s 6
f 7/13/21 1/1/22 5/14/23
f 5/14/23 1/1/22 3/3/24
s 7
usemtl Boden:pasted__pasted__pasted__pasted__pasted__lambert8SG4
f 9/15/25 10/16/26 11/18/27
f 11/18/27 10/16/26 12/17/28
s 8
f 11/18/29 12/17/30 13/20/31
f 13/20/31 12/17/30 14/19/32
s 9
f 13/20/33 14/19/34 15/22/35
f 15/22/35 14/19/34 16/21/36
s 10
f 15/22/37 16/21/38 9/24/39
f 9/24/39 16/21/38 10/23/40
s 11
f 10/16/41 16/25/42 12/17/43
f 12/17/43 16/25/42 14/26/44
s 12
f 15/27/45 9/15/46 13/28/47
f 13/28/47 9/15/46 11/18/48
s 13
usemtl Boden:pasted__pasted__pasted__pasted__lambert8SG3
f 17/29/49 18/30/50 19/32/51
f 19/32/51 18/30/50 20/31/52
s 14
f 19/32/53 20/31/54 21/34/55
f 21/34/55 20/31/54 22/33/56
s 15
f 21/34/57 22/33/58 23/36/59
f 23/36/59 22/33/58 24/35/60
s 16
f 23/36/61 24/35/62 17/38/63
f 17/38/63 24/35/62 18/37/64
s 17
f 18/30/65 24/39/66 20/31/67
f 20/31/67 24/39/66 22/40/68
s 18
f 23/41/69 17/29/70 21/42/71
f 21/42/71 17/29/70 19/32/72
s 19
usemtl Boden:pasted__pasted__pasted__pasted__pasted__lambert8SG3
f 25/43/73 26/44/74 27/46/75
f 27/46/75 26/44/74 28/45/76
s 20
f 27/46/77 28/45/78 29/48/79
f 29/48/79 28/45/78 30/47/80
s 21
f 29/48/81 30/47/82 31/50/83
f 31/50/83 30/47/82 32/49/84
s 22
f 31/50/85 32/49/86 25/52/87
f 25/52/87 32/49/86 26/51/88
s 23
f 26/44/89 32/53/90 28/45/91
f 28/45/91 32/53/90 30/54/92
s 24
f 31/55/93 25/43/94 29/56/95
f 29/56/95 25/43/94 27/46/96
s 25
usemtl initialShadingGroup
f 33/57/97 34/58/98 35/60/99
f 35/60/99 34/58/98 36/59/100
s 26
usemtl Boden:pasted__lambert9SG2
f 35/61/101 36/62/102 37/64/103
f 37/64/103 36/62/102 38/63/104
s 27
usemtl initialShadingGroup
f 37/65/105 38/66/106 39/68/107
f 39/68/107 38/66/106 40/67/108
s 28
f 39/68/109 40/67/110 33/70/111
f 33/70/111 40/67/110 34/69/112
s 29
f 34/58/113 40/71/114 36/59/115
f 36/59/115 40/71/114 38/72/116
s 30
f 39/73/117 33/57/118 37/74/119
f 37/74/119 33/57/118 35/60/120
s 31
usemtl Holz_Ecke:pasted__pasted__pasted__pasted__lambert2SG7
f 41/75/121 42/76/122 43/77/123
f 43/77/123 42/76/122 44/78/124
s 32
f 43/79/125 44/80/126 45/81/127
f 45/81/127 44/80/126 46/82/128
s 33
f 45/83/129 46/84/130 47/85/131
f 47/85/131 46/84/130 48/86/132
s 34
f 47/87/133 48/88/134 41/89/135
f 41/89/135 48/88/134 42/90/136
s 35
f 42/91/137 48/92/138 44/93/139
f 44/93/139 48/92/138 46/94/140
s 36
f 47/95/141 41/96/142 45/97/143
f 45/97/143 41/96/142 43/98/144
s 37
usemtl Holz_Ecke:pasted__pasted__pasted__lambert2SG8
f 49/99/145 50/100/146 51/101/147
f 51/101/147 50/100/146 52/102/148
s 38
f 51/103/149 52/104/150 53/105/151
f 53/105/151 52/104/150 54/106/152
s 39
f 53/107/153 54/108/154 55/109/155
f 55/109/155 54/108/154 56/110/156
s 40
f 55/111/157 56/112/158 49/113/159
f 49/113/159 56/112/158 50/114/160
s 41
f 50/115/161 56/116/162 52/117/163
f 52/117/163 56/116/162 54/118/164
s 42
f 55/119/165 49/120/166 53/121/167
f 53/121/167 49/120/166 51/122/168
s 43
usemtl Holz_Ecke:pasted__pasted__pasted__pasted__lambert2SG8
f 57/123/169 58/124/170 59/125/171 60/126/172
s 44
f 61/127/173 62/128/174 63/129/175 58/130/176
f 64/131/177 62/128/174 61/127/173 65/132/178
s 45
f 66/133/179 67/134/180 64/135/181 68/136/182
s 46
f 69/137/183 64/138/184 67/139/185 66/140/186
s 47
f 58/141/187 70/142/188 71/143/189 60/144/190 59/145/191
s 43
f 72/146/192 73/147/193 61/148/194 58/124/170 57/123/169
s 48
usemtl Holz_Ecke:pasted__pasted__pasted__lambert2SG9
f 71/149/195 74/150/196 72/151/197 57/152/198 60/153/199
s 46
usemtl Holz_Ecke:pasted__pasted__pasted__pasted__lambert2SG8
f 75/154/200 76/155/201 62/156/202 64/138/184 69/137/183
s 47
f 70/142/188 58/141/187 63/157/203 62/158/204 76/159/205 75/160/206
s 45
f 68/136/182 64/135/181 65/161/207 61/162/208 73/163/209 72/151/210 74/150/211
s 48
usemtl Holz_Ecke:pasted__pasted__pasted__lambert2SG9
f 75/164/212 69/165/213 66/133/214 68/136/215 74/150/196 71/149/195 70/166/216
