# This file uses centimeters as units for non-parametric coordinates.

mtllib K3.mtl
g default
v 2.450000 2.000000 2.000000
v 2.490000 2.000000 2.399998
v 2.490000 2.000000 2.000000
v 2.490000 2.000000 2.500000
v 2.000000 2.000000 2.500000
v 2.490000 0.040001 2.500000
v 2.490000 0.000000 2.000000
v 2.000000 2.000000 2.000000
v 2.000000 1.804000 2.000000
v 2.490000 0.000000 2.500000
v 2.000000 0.000000 2.500000
v 2.050000 0.000000 2.000000
v 2.000000 0.000000 2.000000
v 2.000000 0.000000 2.451000
v 2.000000 0.200000 2.000000
v 2.000000 0.196000 2.500000
v 2.000000 2.000000 2.049000
v -2.050000 2.000000 2.000000
v -2.010000 2.000000 2.399998
v -2.010000 2.000000 2.000000
v -2.010000 2.000000 2.500000
v -2.500000 2.000000 2.500000
v -2.010000 0.040001 2.500000
v -2.010000 0.000000 2.000000
v -2.500000 2.000000 2.000000
v -2.500000 1.804000 2.000000
v -2.010000 0.000000 2.500000
v -2.500000 0.000000 2.500000
v -2.450000 0.000000 2.000000
v -2.500000 0.000000 2.000000
v -2.500000 0.000000 2.451000
v -2.500000 0.200000 2.000000
v -2.500000 0.196000 2.500000
v -2.500000 2.000000 2.049000
v 1.500000 0.000000 -0.500000
v 1.500000 0.000000 -1.500000
v 1.500000 0.100000 -0.500000
v 1.500000 0.100000 -1.500000
v 0.500000 0.100000 -0.500000
v 0.500000 0.100000 -1.500000
v 0.500000 0.000000 -0.500000
v 0.500000 0.000000 -1.500000
v 1.500000 0.000000 1.500000
v 1.500000 0.000000 0.500000
v 1.500000 0.100000 1.500000
v 1.500000 0.100000 0.500000
v 0.500000 0.100000 1.500000
v 0.500000 0.100000 0.500000
v 0.500000 0.000000 1.500000
v 0.500000 0.000000 0.500000
v -0.500000 0.000000 1.500000
v -0.500000 0.000000 0.500000
v -0.500000 0.100000 1.500000
v -0.500000 0.100000 0.500000
v -1.500000 0.100000 1.500000
v -1.500000 0.100000 0.500000
v -1.500000 0.000000 1.500000
v -1.500000 0.000000 0.500000
v -0.500000 0.000000 -0.500000
v -0.500000 0.000000 -1.500000
v -0.500000 0.100000 -0.500000
v -0.500000 0.100000 -1.500000
v -1.500000 0.100000 -0.500000
v -1.500000 0.100000 -1.500000
v -1.500000 0.000000 -0.500000
v -1.500000 0.000000 -1.500000
v -2.500000 -0.050000 2.500000
v 2.500000 -0.050000 2.500000
v -2.500000 0.050000 2.500000
v 2.500000 0.050000 2.500000
v -2.500000 0.050000 -2.500000
v 2.500000 0.050000 -2.500000
v -2.500000 -0.050000 -2.500000
v 2.500000 -0.050000 -2.500000
v 2.500000 0.000000 -2.000000
v 2.500000 0.000000 -2.500000
v 2.500000 2.000000 -2.000000
v 2.500000 2.000000 -2.500000
v -2.500000 2.000000 -2.000000
v -2.500000 2.000000 -2.500000
v -2.500000 0.000000 -2.000000
v -2.500000 0.000000 -2.500000
vt 0.100000 0.600000
vt 0.020000 0.620000
vt 0.100000 0.620000
vt 0.548000 1.000000
vt 0.450000 1.000000
vt 0.548000 0.020000
vt 0.450000 1.000000
vt 0.550000 0.000000
vt 0.550000 1.000000
vt 0.470000 1.000000
vt 0.098000 1.000000
vt 0.008000 1.000000
vt -0.000000 1.000000
vt 0.098000 0.902000
vt 0.450000 0.000000
vt 0.450000 0.020000
vt -0.000000 0.375000
vt 0.100000 0.400000
vt 0.100000 0.620000
vt -0.000000 0.620000
vt 0.100000 0.000000
vt 0.009800 0.000000
vt -0.000000 0.000000
vt 0.100000 0.100000
vt 0.009800 0.375000
vt 0.100000 0.375000
vt 0.450000 0.098000
vt 0.450000 0.000000
vt 0.548000 0.000000
vt -0.000000 0.375000
vt -0.000000 0.620000
vt 0.100000 0.375000
vt 0.090200 0.375000
vt -0.000000 0.000000
vt 0.088000 0.000000
vt 0.098000 0.000000
vt 0.098000 0.100000
vt -0.000000 0.098000
vt -0.000000 1.000000
vt 0.090200 1.000000
vt 0.100000 1.000000
vt 0.100000 0.902000
vt 0.100000 0.600000
vt 0.020000 0.620000
vt 0.100000 0.620000
vt 0.548000 1.000000
vt 0.450000 1.000000
vt 0.548000 0.020000
vt 0.450000 1.000000
vt 0.550000 0.000000
vt 0.550000 1.000000
vt 0.470000 1.000000
vt 0.098000 1.000000
vt 0.008000 1.000000
vt -0.000000 1.000000
vt 0.098000 0.902000
vt 0.450000 0.000000
vt 0.450000 0.020000
vt -0.000000 0.375000
vt 0.100000 0.400000
vt 0.100000 0.620000
vt -0.000000 0.620000
vt 0.100000 0.000000
vt 0.009800 0.000000
vt -0.000000 0.000000
vt 0.100000 0.100000
vt 0.009800 0.375000
vt 0.100000 0.375000
vt 0.450000 0.098000
vt 0.450000 0.000000
vt 0.548000 0.000000
vt -0.000000 0.375000
vt -0.000000 0.620000
vt 0.100000 0.375000
vt 0.090200 0.375000
vt -0.000000 0.000000
vt 0.088000 0.000000
vt 0.098000 0.000000
vt 0.098000 0.100000
vt -0.000000 0.098000
vt -0.000000 1.000000
vt 0.090200 1.000000
vt 0.100000 1.000000
vt 0.100000 0.902000
vt 0.375000 0.000000
vt 0.625000 0.000000
vt 0.375000 0.250000
vt 0.625000 0.250000
vt 0.375000 0.500000
vt 0.625000 0.500000
vt 0.375000 0.750000
vt 0.625000 0.750000
vt 0.375000 1.000000
vt 0.625000 1.000000
vt 0.875000 0.000000
vt 0.875000 0.250000
vt 0.125000 0.000000
vt 0.125000 0.250000
vt 0.375000 0.000000
vt 0.625000 0.000000
vt 0.375000 0.250000
vt 0.625000 0.250000
vt 0.375000 0.500000
vt 0.625000 0.500000
vt 0.375000 0.750000
vt 0.625000 0.750000
vt 0.375000 1.000000
vt 0.625000 1.000000
vt 0.875000 0.000000
vt 0.875000 0.250000
vt 0.125000 0.000000
vt 0.125000 0.250000
vt 0.375000 0.000000
vt 0.625000 0.000000
vt 0.375000 0.250000
vt 0.625000 0.250000
vt 0.375000 0.500000
vt 0.625000 0.500000
vt 0.375000 0.750000
vt 0.625000 0.750000
vt 0.375000 1.000000
vt 0.625000 1.000000
vt 0.875000 0.000000
vt 0.875000 0.250000
vt 0.125000 0.000000
vt 0.125000 0.250000
vt 0.375000 0.000000
vt 0.625000 0.000000
vt 0.375000 0.250000
vt 0.625000 0.250000
vt 0.375000 0.500000
vt 0.625000 0.500000
vt 0.375000 0.750000
vt 0.625000 0.750000
vt 0.375000 1.000000
vt 0.625000 1.000000
vt 0.875000 0.000000
vt 0.875000 0.250000
vt 0.125000 0.000000
vt 0.125000 0.250000
vt 0.375000 0.000000
vt 0.625000 0.000000
vt 0.375000 0.250000
vt 0.625000 0.250000
vt 0.001992 0.001992
vt 0.998008 0.001992
vt 0.001992 0.998008
vt 0.998008 0.998008
vt 0.375000 0.500000
vt 0.625000 0.500000
vt 0.375000 0.750000
vt 0.625000 0.750000
vt 0.375000 1.000000
vt 0.625000 1.000000
vt 0.875000 0.000000
vt 0.875000 0.250000
vt 0.125000 0.000000
vt 0.125000 0.250000
vt 0.450000 0.000000
vt 0.550000 0.000000
vt 0.450000 1.000000
vt 0.550000 1.000000
vt -0.000000 0.375000
vt -0.000000 0.625000
vt 1.000000 0.375000
vt 1.000000 0.625000
vt 0.450000 1.000000
vt 0.550000 1.000000
vt 0.450000 0.000000
vt 0.550000 0.000000
vt 1.000000 0.375000
vt 1.000000 0.625000
vt -0.000000 0.375000
vt -0.000000 0.625000
vt -0.000000 0.000000
vt 1.000000 0.000000
vt -0.000000 1.000000
vt 1.000000 1.000000
vt 1.000000 0.000000
vt -0.000000 0.000000
vt 1.000000 1.000000
vt -0.000000 1.000000
vn 0.000000 1.000000 0.000000
vn 0.000000 1.000000 0.000000
vn 0.000000 1.000000 0.000000
vn 0.000000 0.000000 1.000000
vn 0.000000 0.000000 1.000000
vn 0.000000 0.000000 1.000000
vn 1.000000 0.000000 0.000000
vn 1.000000 0.000000 0.000000
vn 1.000000 0.000000 0.000000
vn 1.000000 0.000000 0.000000
vn 0.000000 0.000000 -1.000000
vn 0.000000 0.000000 -1.000000
vn 0.000000 0.000000 -1.000000
vn 0.000000 0.000000 -1.000000
vn 1.000000 0.000000 0.000000
vn 1.000000 0.000000 0.000000
vn 0.000000 -1.000000 0.000000
vn 0.000000 -1.000000 0.000000
vn 0.000000 -1.000000 0.000000
vn 0.000000 -1.000000 0.000000
vn -1.000000 0.000000 0.000000
vn -1.000000 0.000000 0.000000
vn -1.000000 0.000000 0.000000
vn -1.000000 0.000000 0.000000
vn 0.000000 -1.000000 0.000000
vn 0.000000 -1.000000 0.000000
vn 0.000000 0.000000 1.000000
vn 0.000000 0.000000 1.000000
vn 0.000000 0.000000 1.000000
vn 0.000000 1.000000 0.000000
vn 0.000000 1.000000 0.000000
vn 0.000000 1.000000 0.000000
vn 0.000000 1.000000 0.000000
vn 0.000000 0.000000 -1.000000
vn 0.000000 0.000000 -1.000000
vn 0.000000 0.000000 -1.000000
vn 0.000000 0.000000 -1.000000
vn -1.000000 0.000000 0.000000
vn -1.000000 0.000000 0.000000
vn -1.000000 0.000000 0.000000
vn -1.000000 0.000000 0.000000
vn -1.000000 0.000000 0.000000
vn 0.000000 1.000000 0.000000
vn 0.000000 1.000000 0.000000
vn 0.000000 1.000000 0.000000
vn 0.000000 0.000000 1.000000
vn 0.000000 0.000000 1.000000
vn 0.000000 0.000000 1.000000
vn 1.000000 0.000000 0.000000
vn 1.000000 0.000000 0.000000
vn 1.000000 0.000000 0.000000
vn 1.000000 0.000000 0.000000
vn 0.000000 0.000000 -1.000000
vn 0.000000 0.000000 -1.000000
vn 0.000000 0.000000 -1.000000
vn 0.000000 0.000000 -1.000000
vn 1.000000 0.000000 0.000000
vn 1.000000 0.000000 0.000000
vn 0.000000 -1.000000 0.000000
vn 0.000000 -1.000000 0.000000
vn 0.000000 -1.000000 0.000000
vn 0.000000 -1.000000 0.000000
vn -1.000000 0.000000 0.000000
vn -1.000000 0.000000 0.000000
vn -1.000000 0.000000 0.000000
vn -1.000000 0.000000 0.000000
vn 0.000000 -1.000000 0.000000
vn 0.000000 -1.000000 0.000000
vn 0.000000 0.000000 1.000000
vn 0.000000 0.000000 1.000000
vn 0.000000 0.000000 1.000000
vn 0.000000 1.000000 0.000000
vn 0.000000 1.000000 0.000000
vn 0.000000 1.000000 0.000000
vn 0.000000 1.000000 0.000000
vn 0.000000 0.000000 -1.000000
vn 0.000000 0.000000 -1.000000
vn 0.000000 0.000000 -1.000000
vn 0.000000 0.000000 -1.000000
vn -1.000000 0.000000 0.000000
vn -1.000000 0.000000 0.000000
vn -1.000000 0.000000 0.000000
vn -1.000000 0.000000 0.000000
vn -1.000000 0.000000 0.000000
vn 1.000000 -0.000005 0.000000
vn 1.000000 -0.000005 0.000000
vn 1.000000 -0.000005 0.000000
vn 1.000000 -0.000005 0.000000
vn 0.000000 1.000000 0.000000
vn 0.000000 1.000000 0.000000
vn 0.000000 1.000000 0.000000
vn 0.000000 1.000000 0.000000
vn -1.000000 0.000000 0.000000
vn -1.000000 0.000000 0.000000
vn -1.000000 0.000000 0.000000
vn -1.000000 0.000000 0.000000
vn 0.000000 -1.000000 0.000000
vn 0.000000 -1.000000 0.000000
vn 0.000000 -1.000000 0.000000
vn 0.000000 -1.000000 0.000000
vn 0.000000 0.000000 -1.000000
vn 0.000000 0.000000 -1.000000
vn 0.000000 0.000000 -1.000000
vn 0.000000 0.000000 -1.000000
vn 0.000000 0.000000 1.000000
vn 0.000000 0.000000 1.000000
vn 0.000000 0.000000 1.000000
vn 0.000000 0.000000 1.000000
vn 1.000000 -0.000005 0.000000
vn 1.000000 -0.000005 0.000000
vn 1.000000 -0.000005 0.000000
vn 1.000000 -0.000005 0.000000
vn 0.000000 1.000000 0.000000
vn 0.000000 1.000000 0.000000
vn 0.000000 1.000000 0.000000
vn 0.000000 1.000000 0.000000
vn -1.000000 0.000000 0.000000
vn -1.000000 0.000000 0.000000
vn -1.000000 0.000000 0.000000
vn -1.000000 0.000000 0.000000
vn 0.000000 -1.000000 0.000000
vn 0.000000 -1.000000 0.000000
vn 0.000000 -1.000000 0.000000
vn 0.000000 -1.000000 0.000000
vn 0.000000 0.000000 -1.000000
vn 0.000000 0.000000 -1.000000
vn 0.000000 0.000000 -1.000000
vn 0.000000 0.000000 -1.000000
vn 0.000000 0.000000 1.000000
vn 0.000000 0.000000 1.000000
vn 0.000000 0.000000 1.000000
vn 0.000000 0.000000 1.000000
vn 1.000000 -0.000005 0.000000
vn 1.000000 -0.000005 0.000000
vn 1.000000 -0.000005 0.000000
vn 1.000000 -0.000005 0.000000
vn 0.000000 1.000000 0.000000
vn 0.000000 1.000000 0.000000
vn 0.000000 1.000000 0.000000
vn 0.000000 1.000000 0.000000
vn -1.000000 0.000000 0.000000
vn -1.000000 0.000000 0.000000
vn -1.000000 0.000000 0.000000
vn -1.000000 0.000000 0.000000
vn 0.000000 -1.000000 0.000000
vn 0.000000 -1.000000 0.000000
vn 0.000000 -1.000000 0.000000
vn 0.000000 -1.000000 0.000000
vn 0.000000 0.000000 -1.000000
vn 0.000000 0.000000 -1.000000
vn 0.000000 0.000000 -1.000000
vn 0.000000 0.000000 -1.000000
vn 0.000000 0.000000 1.000000
vn 0.000000 0.000000 1.000000
vn 0.000000 0.000000 1.000000
vn 0.000000 0.000000 1.000000
vn 1.000000 -0.000005 0.000000
vn 1.000000 -0.000005 0.000000
vn 1.000000 -0.000005 0.000000
vn 1.000000 -0.000005 0.000000
vn 0.000000 1.000000 0.000000
vn 0.000000 1.000000 0.000000
vn 0.000000 1.000000 0.000000
vn 0.000000 1.000000 0.000000
vn -1.000000 0.000000 0.000000
vn -1.000000 0.000000 0.000000
vn -1.000000 0.000000 0.000000
vn -1.000000 0.000000 0.000000
vn 0.000000 -1.000000 0.000000
vn 0.000000 -1.000000 0.000000
vn 0.000000 -1.000000 0.000000
vn 0.000000 -1.000000 0.000000
vn 0.000000 0.000000 -1.000000
vn 0.000000 0.000000 -1.000000
vn 0.000000 0.000000 -1.000000
vn 0.000000 0.000000 -1.000000
vn 0.000000 0.000000 1.000000
vn 0.000000 0.000000 1.000000
vn 0.000000 0.000000 1.000000
vn 0.000000 0.000000 1.000000
vn 0.000000 0.000000 1.000000
vn 0.000000 0.000000 1.000000
vn 0.000000 0.000000 1.000000
vn 0.000000 0.000000 1.000000
vn 0.000000 1.000000 0.000000
vn 0.000000 1.000000 0.000000
vn 0.000000 1.000000 0.000000
vn 0.000000 1.000000 0.000000
vn 0.000000 0.000000 -1.000000
vn 0.000000 0.000000 -1.000000
vn 0.000000 0.000000 -1.000000
vn 0.000000 0.000000 -1.000000
vn 0.000000 -1.000000 0.000000
vn 0.000000 -1.000000 0.000000
vn 0.000000 -1.000000 0.000000
vn 0.000000 -1.000000 0.000000
vn 1.000000 0.000000 0.000000
vn 1.000000 0.000000 0.000000
vn 1.000000 0.000000 0.000000
vn 1.000000 0.000000 0.000000
vn -1.000000 0.000000 0.000000
vn -1.000000 0.000000 0.000000
vn -1.000000 0.000000 0.000000
vn -1.000000 0.000000 0.000000
vn 1.000000 0.000000 0.000000
vn 1.000000 0.000000 0.000000
vn 1.000000 0.000000 0.000000
vn 1.000000 0.000000 0.000000
vn 0.000000 1.000000 0.000000
vn 0.000000 1.000000 0.000000
vn 0.000000 1.000000 0.000000
vn 0.000000 1.000000 0.000000
vn -1.000000 0.000000 0.000000
vn -1.000000 0.000000 0.000000
vn -1.000000 0.000000 0.000000
vn -1.000000 0.000000 0.000000
vn 0.000000 -1.000000 0.000000
vn 0.000000 -1.000000 0.000000
vn 0.000000 -1.000000 0.000000
vn 0.000000 -1.000000 0.000000
vn 0.000000 0.000000 -1.000000
vn 0.000000 0.000000 -1.000000
vn 0.000000 0.000000 -1.000000
vn 0.000000 0.000000 -1.000000
vn 0.000000 0.000000 1.000000
vn 0.000000 0.000000 1.000000
vn 0.000000 0.000000 1.000000
vn 0.000000 0.000000 1.000000
s 1
g Kreuzung_T_Stein
usemtl Stein_Ecke_Einzel:pasted__pasted__lambert2SG6
f 1/1/1 2/2/2 3/3/3
s 2
f 4/4/4 5/5/5 6/6/6
s 3
usemtl Stein_Ecke_Einzel:pasted__lambert2SG6
f 4/7/7 7/8/8 3/9/9 2/10/10
s 4
f 8/11/11 1/12/12 3/13/13 9/14/14
s 3
f 10/15/15 7/8/8 4/7/7 6/16/16
s 5
usemtl Stein_Ecke_Einzel:pasted__pasted__lambert2SG6
f 11/17/17 12/18/18 7/19/19 10/20/20
s 6
f 13/21/21 14/22/22 11/23/23 15/24/24
s 5
f 12/18/18 11/17/17 14/25/25 13/26/26
s 2
f 6/6/6 5/5/5 16/27/27 11/28/28 10/29/29
s 1
f 5/30/30 4/31/31 2/2/2 1/1/1 8/32/32 17/33/33
s 4
usemtl Stein_Ecke_Einzel:pasted__lambert2SG6
f 7/34/34 12/35/35 13/36/36 15/37/37 9/14/14 3/13/13
s 6
usemtl Stein_Ecke_Einzel:pasted__pasted__lambert2SG6
f 15/24/24 11/23/23 16/38/38 5/39/39 17/40/40 8/41/41 9/42/42
s 7
usemtl Stein_Ecke_Einzel1:pasted__pasted__lambert2SG6
f 18/43/43 19/44/44 20/45/45
s 8
f 21/46/46 22/47/47 23/48/48
s 9
usemtl Stein_Ecke_Einzel1:pasted__lambert2SG6
f 21/49/49 24/50/50 20/51/51 19/52/52
s 10
f 25/53/53 18/54/54 20/55/55 26/56/56
s 9
f 27/57/57 24/50/50 21/49/49 23/58/58
s 11
usemtl Stein_Ecke_Einzel1:pasted__pasted__lambert2SG6
f 28/59/59 29/60/60 24/61/61 27/62/62
s 12
f 30/63/63 31/64/64 28/65/65 32/66/66
s 11
f 29/60/60 28/59/59 31/67/67 30/68/68
s 8
f 23/48/48 22/47/47 33/69/69 28/70/70 27/71/71
s 7
f 22/72/72 21/73/73 19/44/44 18/43/43 25/74/74 34/75/75
s 10
usemtl Stein_Ecke_Einzel1:pasted__lambert2SG6
f 24/76/76 29/77/77 30/78/78 32/79/79 26/56/56 20/55/55
s 12
usemtl Stein_Ecke_Einzel1:pasted__pasted__lambert2SG6
f 32/66/66 28/65/65 33/80/80 22/81/81 34/82/82 25/83/83 26/84/84
s 13
usemtl Boden:pasted__pasted__pasted__pasted__pasted__pasted__lambert8SG3
f 35/85/85 36/86/86 37/87/87
f 37/87/87 36/86/86 38/88/88
s 14
f 37/87/89 38/88/90 39/89/91
f 39/89/91 38/88/90 40/90/92
s 15
f 39/89/93 40/90/94 41/91/95
f 41/91/95 40/90/94 42/92/96
s 16
f 41/91/97 42/92/98 35/93/99
f 35/93/99 42/92/98 36/94/100
s 17
f 36/86/101 42/95/102 38/88/103
f 38/88/103 42/95/102 40/96/104
s 18
f 41/97/105 35/85/106 39/98/107
f 39/98/107 35/85/106 37/87/108
s 19
usemtl Boden:pasted__pasted__pasted__pasted__pasted__lambert8SG4
f 43/99/109 44/100/110 45/101/111
f 45/101/111 44/100/110 46/102/112
s 20
f 45/101/113 46/102/114 47/103/115
f 47/103/115 46/102/114 48/104/116
s 21
f 47/103/117 48/104/118 49/105/119
f 49/105/119 48/104/118 50/106/120
s 22
f 49/105/121 50/106/122 43/107/123
f 43/107/123 50/106/122 44/108/124
s 23
f 44/100/125 50/109/126 46/102/127
f 46/102/127 50/109/126 48/110/128
s 24
f 49/111/129 43/99/130 47/112/131
f 47/112/131 43/99/130 45/101/132
s 25
usemtl Boden:pasted__pasted__pasted__pasted__lambert8SG3
f 51/113/133 52/114/134 53/115/135
f 53/115/135 52/114/134 54/116/136
s 26
f 53/115/137 54/116/138 55/117/139
f 55/117/139 54/116/138 56/118/140
s 27
f 55/117/141 56/118/142 57/119/143
f 57/119/143 56/118/142 58/120/144
s 28
f 57/119/145 58/120/146 51/121/147
f 51/121/147 58/120/146 52/122/148
s 29
f 52/114/149 58/123/150 54/116/151
f 54/116/151 58/123/150 56/124/152
s 30
f 57/125/153 51/113/154 55/126/155
f 55/126/155 51/113/154 53/115/156
s 31
usemtl Boden:pasted__pasted__pasted__pasted__pasted__lambert8SG3
f 59/127/157 60/128/158 61/129/159
f 61/129/159 60/128/158 62/130/160
s 32
f 61/129/161 62/130/162 63/131/163
f 63/131/163 62/130/162 64/132/164
s 33
f 63/131/165 64/132/166 65/133/167
f 65/133/167 64/132/166 66/134/168
s 34
f 65/133/169 66/134/170 59/135/171
f 59/135/171 66/134/170 60/136/172
s 35
f 60/128/173 66/137/174 62/130/175
f 62/130/175 66/137/174 64/138/176
s 36
f 65/139/177 59/127/178 63/140/179
f 63/140/179 59/127/178 61/129/180
s 37
usemtl initialShadingGroup
f 67/141/181 68/142/182 69/143/183
f 69/143/183 68/142/182 70/144/184
s 38
usemtl Boden:pasted__lambert9SG2
f 69/145/185 70/146/186 71/147/187
f 71/147/187 70/146/186 72/148/188
s 39
usemtl initialShadingGroup
f 71/149/189 72/150/190 73/151/191
f 73/151/191 72/150/190 74/152/192
s 40
f 73/151/193 74/152/194 67/153/195
f 67/153/195 74/152/194 68/154/196
s 41
f 68/142/197 74/155/198 70/144/199
f 70/144/199 74/155/198 72/156/200
s 42
f 73/157/201 67/141/202 71/158/203
f 71/158/203 67/141/202 69/143/204
s 43
usemtl Stein:lambert2SG
f 75/159/205 76/160/206 77/161/207
f 77/161/207 76/160/206 78/162/208
s 44
f 77/163/209 78/164/210 79/165/211
f 79/165/211 78/164/210 80/166/212
s 45
f 79/167/213 80/168/214 81/169/215
f 81/169/215 80/168/214 82/170/216
s 46
f 81/171/217 82/172/218 75/173/219
f 75/173/219 82/172/218 76/174/220
s 47
f 76/175/221 82/176/222 78/177/223
f 78/177/223 82/176/222 80/178/224
s 48
f 81/179/225 75/180/226 79/181/227
f 79/181/227 75/180/226 77/182/228
